<svg xmlns="http://www.w3.org/2000/svg" viewBox="0 0 181.03 44.23"><defs><style>.cls-1,.cls-2{fill:#005eae;}.cls-1{stroke:#005eae;stroke-miterlimit:10;}</style></defs><g id="图层_2" data-name="图层 2"><g id="图层_1-2" data-name="图层 1"><path class="cls-1" d="M14.71,42.35h-.23a14.16,14.16,0,0,1-9.71-4.08A14.06,14.06,0,0,1,.51,28.63c0-.12,0-.25,0-.37a10.73,10.73,0,0,1,8-10.42,10.62,10.62,0,0,1,7.68,1,27.66,27.66,0,0,1,5.27,3.82c1.64,1.41,3.29,2.86,4.88,4.27,3.31,2.92,6.73,5.94,10.24,8.66,3,2.33,7.59,4.61,12.51,2.2a10.7,10.7,0,0,0,2.3-17.86,1.71,1.71,0,0,1,2.21-2.61,14.1,14.1,0,0,1-3,23.53c-5.07,2.49-10.79,1.58-16.11-2.56-3.59-2.79-7-5.85-10.4-8.8-1.58-1.4-3.22-2.84-4.85-4.24a24.67,24.67,0,0,0-4.6-3.37,7.31,7.31,0,0,0-5.23-.71,7.31,7.31,0,0,0-5.47,7.09v.29a10.8,10.8,0,0,0,16.47,8.8,1.7,1.7,0,1,1,1.79,2.9A14.06,14.06,0,0,1,14.71,42.35Z"/><path class="cls-1" d="M38.78,27.41a8.68,8.68,0,0,1-6.73-3.22,10,10,0,0,1-2.25-5,1.71,1.71,0,0,1,3.39-.48,6.14,6.14,0,0,0,4.35,5.1,5.67,5.67,0,0,0,5.78-2.19c2.38-3,1.48-7.42-.37-10.26a17.06,17.06,0,0,0-9.21-6.7,17.54,17.54,0,0,0-20.61,8.5,1.71,1.71,0,1,1-3-1.61A21,21,0,0,1,34.75,1.42a20.59,20.59,0,0,1,11.06,8.1c2.58,4,3.64,9.9.18,14.26A9.24,9.24,0,0,1,38.78,27.41Z"/><path class="cls-2" d="M88.76,17.37V15h15.69v2.37H96.74q-2.17,3-3.43,4.36,2.7,0,6.2-.2l-1.85-2.38,2-1.18c1.59,1.84,3.1,3.65,4.55,5.4l-2.17,1.52-.93-1.25c-3,.08-5.6.22-7.84.39a12.45,12.45,0,0,0-2.77.33L89.36,22a7.2,7.2,0,0,0,2-1.65,22.09,22.09,0,0,0,2.18-3Zm1.32-4.81V10.12H103v2.44Z"/><path class="cls-2" d="M107.37,25.09l-1-2.51a3.51,3.51,0,0,0,.53-.46A6.93,6.93,0,0,1,108,21.2V17h-1.45V14.67h3.75v6.46a3.71,3.71,0,0,0,3.3,1.65q5.93,0,9-.07l-.13.47a8.58,8.58,0,0,0-.53,1.58H116.6c-1.32,0-2.5,0-3.56-.07A4.54,4.54,0,0,1,109.28,23,15.23,15.23,0,0,0,107.37,25.09Zm1.52-11.6c-.62-1-1.27-2.05-2-3.1l1.91-1.06c.35.44.82,1.06,1.39,1.85.35.48.61.83.79,1.05Zm2.64,4.35v-3.5l-.53-.72a7.38,7.38,0,0,1-.46-.59A11.85,11.85,0,0,0,114,9.27l2.44.2-.46.79h4.15V11.9l-.92,1.19h2.3v4.75H119.7l.72,1v-.06a8,8,0,0,1,.93.26,7.51,7.51,0,0,1,.92.33,8.41,8.41,0,0,1-.26,1.39c-.22.92-.93,1.38-2.11,1.38h-2.24c-1.28,0-1.92-.59-1.92-1.78V20a15.9,15.9,0,0,1-3.69,2.43c-.09-.13-.22-.32-.39-.59a13.82,13.82,0,0,0-.92-1.38c2.41-.93,3.77-1.78,4.08-2.57Zm2.11-3.1v1.38h1.71a6.22,6.22,0,0,0,.13-1.38Zm4-2.7h-2.9a9.6,9.6,0,0,1-.92,1.05h3ZM119,19.88a.69.69,0,0,1-.13-.2,10.73,10.73,0,0,0-.86-1.32l1.06-.52h-2a5.6,5.6,0,0,1-.19.59h1v1.32q0,.66.6.66h1.12a.58.58,0,0,0,.66-.53,1.62,1.62,0,0,0,.13-.66Zm.4-5.14h-1.78c0,.44-.11.9-.2,1.38h2Z"/><path class="cls-2" d="M124.87,12.3V10h15V12.3H129.68l-.2,1.65h8.83l-.46,8.3h2.44v2.11H124.47V22.25h10.81l.07-1.64h-9.17l.93-8.31Zm10.74,3.82h-6.39L129,18.36h6.53Z"/><path class="cls-2" d="M142.29,16.58v-2.1h7.65v2.1h-3.1a36.75,36.75,0,0,1-1.78,4.55c.48,0,1.34,0,2.57-.13a12.39,12.39,0,0,0-.53-1.52c-.22-.66-.39-1.14-.53-1.45l1.92-.59c.21.57.63,1.63,1.25,3.17.22.52.37.92.46,1.18.79-1.1,1.19-3.51,1.19-7.25h-1.32V12.37h1.38l.07-3h2.24v1.52c0,.66-.07,1.16-.07,1.52h4c0,.79,0,2-.06,3.49q-.08,4.82-.13,6.52a2.08,2.08,0,0,1-2.11,2.31h-1.06c-.66,0-1.12.07-1.38.07-.13-.75-.29-1.5-.46-2.24h1.71q.92,0,1-1,.14-3.16.13-7h-1.71v.07a26.61,26.61,0,0,1-.66,6.32,11.73,11.73,0,0,1-2.31,4.29,3.64,3.64,0,0,1-.33-.2,16.27,16.27,0,0,0-1.84-1.12,3.42,3.42,0,0,1,.46-.53,2.19,2.19,0,0,0,.46-.46c-.66.09-1.61.18-2.84.27a16,16,0,0,0-1.64.06,11.17,11.17,0,0,0-1.85.4l-.86-2a4.2,4.2,0,0,0,.79-1.05,28.72,28.72,0,0,0,1.39-4Zm.79-4.15V10.26h6.33v2.17Z"/><path class="cls-2" d="M67.34,27.81H68.6v6.43h3.76v1h-5Z"/><path class="cls-2" d="M76.76,33.45l1.23.32a2.31,2.31,0,0,1-2.56,1.66,2.59,2.59,0,0,1-2.75-2.82c.07-1.88,1-2.86,2.71-3q2.56.08,2.64,3V33H73.94a1.47,1.47,0,0,0,1.45,1.48A1.22,1.22,0,0,0,76.76,33.45Zm-1.37-2.72A1.37,1.37,0,0,0,74,32h2.71A1.27,1.27,0,0,0,75.39,30.73Z"/><path class="cls-2" d="M78.74,27.81h1.19v1.34H78.74Zm0,2h1.19v5.53H78.74Z"/><path class="cls-2" d="M85.09,31.17l-1.19.29a.89.89,0,0,0-1-.76c-.6,0-.92.19-.94.58s.37.58,1.26.72c1.45.22,2.16.8,2.14,1.73,0,1.09-.85,1.64-2.39,1.67a2.22,2.22,0,0,1-2.42-1.63l1.16-.32a1.12,1.12,0,0,0,1.26,1c.77,0,1.16-.23,1.16-.69s-.34-.6-1.16-.72c-1.56-.24-2.31-.83-2.24-1.77s.78-1.58,2.13-1.63S84.88,30.18,85.09,31.17Z"/><path class="cls-2" d="M89.71,29.76h1.16v5.53H89.71v-.58a2,2,0,0,1-1.55.69,1.76,1.76,0,0,1-2-2.06V29.76h1.2v3.47c0,.84.31,1.25,1,1.23a1.32,1.32,0,0,0,1.37-1.27Z"/><path class="cls-2" d="M95.27,30l-.51,1a1.09,1.09,0,0,0-.76-.25c-.65,0-1,.48-.94,1.52v3H91.87V29.76h1.19v.79a1.23,1.23,0,0,1,1.09-.9A1.62,1.62,0,0,1,95.27,30Z"/><path class="cls-2" d="M99.38,33.45l1.23.32A2.32,2.32,0,0,1,98,35.43a2.59,2.59,0,0,1-2.75-2.82c.08-1.88,1-2.86,2.72-3,1.71.05,2.58,1.05,2.63,3V33H96.56A1.46,1.46,0,0,0,98,34.46,1.22,1.22,0,0,0,99.38,33.45ZM98,30.73A1.38,1.38,0,0,0,96.63,32h2.71A1.25,1.25,0,0,0,98,30.73Z"/><path class="cls-2" d="M110.13,29.87l-1.3.36a2,2,0,0,0-1.92-1.45c-1.42.08-2.16,1-2.24,2.79s.75,2.73,2.17,2.78a2,2,0,0,0,2.1-1.77l1.34.32a3.11,3.11,0,0,1-3.4,2.5q-3.43-.07-3.51-3.83T107,27.66A3.25,3.25,0,0,1,110.13,29.87Z"/><path class="cls-2" d="M111,27.81h1.2v7.48H111Z"/><path class="cls-2" d="M115.57,29.65c1.66.07,2.53,1,2.6,2.89s-.93,2.84-2.71,2.89a2.58,2.58,0,0,1-2.67-2.78C112.84,30.7,113.76,29.7,115.57,29.65Zm-.07,4.84c.91,0,1.38-.66,1.41-1.91s-.5-1.89-1.41-1.92-1.46.68-1.48,1.95S114.53,34.45,115.5,34.49Z"/><path class="cls-2" d="M122.39,29.76h1.16v5.53h-1.16v-.58a2,2,0,0,1-1.55.69,1.76,1.76,0,0,1-2-2.06V29.76H120v3.47c0,.84.31,1.25,1,1.23a1.32,1.32,0,0,0,1.37-1.27Z"/><path class="cls-2" d="M128.06,27.81h1.19v7.51h-1.19v-.61a1.76,1.76,0,0,1-1.56.72c-1.51,0-2.27-1-2.27-2.82s.8-3,2.42-3a1.85,1.85,0,0,1,1.41.72Zm0,5.06v-.73c0-.94-.46-1.42-1.3-1.44s-1.34.61-1.34,1.91.42,1.91,1.34,1.88S128.06,34,128.06,32.87Z"/><path class="cls-2" d="M139,29.87l-1.3.36a2,2,0,0,0-1.92-1.45c-1.42.08-2.17,1-2.24,2.79s.75,2.73,2.17,2.78a2,2,0,0,0,2.09-1.77l1.34.32a3.1,3.1,0,0,1-3.4,2.5q-3.42-.07-3.5-3.83.07-3.8,3.61-3.91A3.26,3.26,0,0,1,139,29.87Z"/><path class="cls-2" d="M142.31,29.65c1.66.07,2.53,1,2.6,2.89s-.93,2.84-2.71,2.89a2.59,2.59,0,0,1-2.68-2.78Q139.59,29.73,142.31,29.65Zm-.07,4.84c.91,0,1.38-.66,1.4-1.91s-.49-1.89-1.4-1.92-1.46.68-1.49,1.95S141.27,34.45,142.24,34.49Z"/><path class="cls-2" d="M153.21,31.78v3.51H152v-3.4c0-.84-.27-1.24-.87-1.19A1.14,1.14,0,0,0,150,31.93v3.36h-1.2v-3.4c0-.84-.26-1.24-.86-1.19a1.19,1.19,0,0,0-1.16,1.19v3.4h-1.19V29.8h1.19v.61a1.54,1.54,0,0,1,1.26-.76,1.83,1.83,0,0,1,1.74.9,1.68,1.68,0,0,1,1.44-.9C152.55,29.63,153.21,30.34,153.21,31.78Z"/><path class="cls-2" d="M155.33,37.13h-1.19V29.76h1.19v.69a1.79,1.79,0,0,1,1.56-.8c1.47.07,2.23,1,2.28,2.89s-.78,2.92-2.39,2.89a1.82,1.82,0,0,1-1.45-.68Zm0-4.88V33c0,.94.47,1.42,1.34,1.45s1.33-.62,1.3-1.92-.44-1.88-1.33-1.88S155.33,31.19,155.33,32.25Z"/><path class="cls-2" d="M163.35,29.76h1.16v5.53h-1.16v-.58a2,2,0,0,1-1.55.69,1.76,1.76,0,0,1-2-2.06V29.76H161v3.47q0,1.26,1,1.23a1.32,1.32,0,0,0,1.37-1.27Z"/><path class="cls-2" d="M167.82,34.42l.22.76a4.07,4.07,0,0,1-1,.22c-.89,0-1.33-.42-1.3-1.34V30.73H165v-1h.76V28.39l1.15-.58,0,2h1l0,1h-.94V34c0,.37.08.52.32.47A2.25,2.25,0,0,0,167.82,34.42Z"/><path class="cls-2" d="M168.39,27.81h1.19v1.34h-1.19Zm0,2h1.19v5.53h-1.19Z"/><path class="cls-2" d="M175.25,31.78v3.51h-1.19v-3.4c0-.82-.33-1.23-1-1.23a1.33,1.33,0,0,0-1.41,1.27v3.36h-1.15V29.76h1.15v.69a1.73,1.73,0,0,1,1.56-.8C174.62,29.6,175.3,30.31,175.25,31.78Z"/><path class="cls-2" d="M179.83,29.8H181v4.69c.08,1.74-.83,2.58-2.71,2.53a2.81,2.81,0,0,1-2.13-.79l.61-.69a2.83,2.83,0,0,0,1.49.47c1.1.05,1.62-.43,1.55-1.44a1.82,1.82,0,0,1-1.59.61c-1.49-.07-2.28-1-2.35-2.67s.89-2.75,2.46-2.82a1.67,1.67,0,0,1,1.48.79Zm0,3V32a1.23,1.23,0,0,0-1.26-1.26c-1,0-1.46.63-1.49,1.81s.49,1.68,1.38,1.73S179.83,33.75,179.83,32.76Z"/><circle class="cls-2" cx="21.66" cy="39.12" r="5.11"/><circle class="cls-2" cx="54.58" cy="20.67" r="5.11"/><circle class="cls-2" cx="30.19" cy="18.09" r="5.11"/><circle class="cls-2" cx="12.33" cy="10.23" r="5.11"/></g></g></svg>